<?xml version="1.0" encoding="UTF-8"?><svg id="Ebene_1" xmlns="http://www.w3.org/2000/svg" viewBox="0 0 556.3 142.84"><defs><style>.cls-1{fill:#221c36;}</style></defs><path class="cls-1" d="M475.24,41.28h0c-7.48,0-14.26,3.03-19.17,7.94l7.19,7.19c3.07-3.07,7.3-4.96,11.98-4.96,9.36,0,16.94,7.59,16.94,16.94s-7.58,16.94-16.94,16.94c-4.68,0-8.92-1.9-11.98-4.96l-7.19,7.19c4.91,4.9,11.68,7.94,19.17,7.94,14.97,0,27.11-12.14,27.11-27.11s-12.14-27.11-27.11-27.11"/><path class="cls-1" d="M398.27,68.39l23.96-23.96,23.96,23.96-23.96,23.96-23.96-23.96Zm23.96-38.34l-38.34,38.34,38.34,38.34,38.34-38.34-38.34-38.34Z"/><g><path class="cls-1" d="M275.82,53.9h-.13c-1.38,0-2.5,1.12-2.5,2.5v14.61c0,6.62-5.36,11.98-11.98,11.98s-11.98-5.36-11.98-11.98v-14.55c0-1.42-1.15-2.57-2.57-2.57s-2.57,1.15-2.57,2.57v14.55c0,9.45,7.66,17.11,17.11,17.11,4.67,0,8.89-1.87,11.98-4.9v1.48c0,6.62-5.36,11.98-11.98,11.98-3.93,0-7.41-1.89-9.6-4.81-.74-1-2.09-1.32-3.21-.76-1.44,.72-1.86,2.57-.89,3.86,3.12,4.16,8.09,6.86,13.7,6.86,8.87,0,16.17-6.75,17.03-15.4h.09v-30.02c0-1.38-1.12-2.5-2.5-2.5Z"/><path class="cls-1" d="M221.42,49.52c-9.64,0-15.89,7.12-15.89,17.02s6.05,16.89,15.96,16.89c6.45,0,9.58-2.99,11.04-4.32,.73-.73,1.2-1.06,2.13-1.06,1.46,0,2.59,.86,2.59,2.39,0,.93-.33,1.6-1.06,2.39-1.2,1.26-6.32,5.79-14.83,5.79-12.3,0-21.41-9.58-21.41-22.08s9.31-22.21,21.28-22.21c7.12,0,12.17,3.26,14.16,5.19,1,1,1.26,1.6,1.26,2.39,0,1.33-.8,2.53-2.46,2.53-.73,0-1.33-.2-2.06-.86-2.66-2.06-5.65-4.06-10.71-4.06Z"/><path class="cls-1" d="M129.84,71.51c0-9.45-7.66-17.11-17.11-17.11s-17.11,7.66-17.11,17.11,7.66,17.11,17.11,17.11c4.67,0,8.89-1.87,11.98-4.9v3.09c0,1,.81,1.82,1.82,1.82h1.5c1,0,1.82-.81,1.82-1.82v-15.3h0Zm-17.11,11.98c-6.62,0-11.98-5.36-11.98-11.98s5.36-11.98,11.98-11.98,11.98,5.36,11.98,11.98-5.36,11.98-11.98,11.98Z"/><path class="cls-1" d="M86.2,44.12c-1.42,0-2.57,1.15-2.57,2.57v12.6c-3.09-3.03-7.31-4.9-11.98-4.9-9.45,0-17.11,7.66-17.11,17.11s7.66,17.11,17.11,17.11,17.11-7.66,17.11-17.11v-24.82c0-1.42-1.15-2.57-2.57-2.57Zm-14.55,39.36c-6.62,0-11.98-5.36-11.98-11.98s5.36-11.98,11.98-11.98,11.98,5.36,11.98,11.98-5.36,11.98-11.98,11.98Z"/><path class="cls-1" d="M145.24,74.93v-15.4h7.7c1.42,0,2.57-1.15,2.57-2.57h0c0-1.42-1.15-2.57-2.57-2.57h-7.7v-7.7c0-1.42-1.15-2.57-2.57-2.57h0c-1.42,0-2.57,1.15-2.57,2.57v7.7h-4.28c-1.42,0-2.57,1.15-2.57,2.57h0c0,1.42,1.15,2.57,2.57,2.57h4.28v16.26h0c0,7.09,5.75,12.84,12.84,12.84h.08c1.38,0,2.49-1.11,2.49-2.49v-.17c0-1.38-1.09-2.47-2.44-2.47h-.13c-4.25,0-7.7-3.45-7.7-7.7h0v-.86Z"/><path class="cls-1" d="M175.97,54.39c-9.45,0-17.11,7.66-17.11,17.11s7.66,17.11,17.11,17.11c4.67,0,8.89-1.87,11.98-4.9v3.09c0,1,.81,1.82,1.82,1.82h1.5c1,0,1.82-.81,1.82-1.82v-15.3c0-9.45-7.66-17.11-17.11-17.11Zm0,29.1c-6.62,0-11.98-5.36-11.98-11.98s5.36-11.98,11.98-11.98,11.98,5.36,11.98,11.98-5.36,11.98-11.98,11.98Z"/><path class="cls-1" d="M306.51,82.72c-1.56,.59-3.27,.86-5.06,.74-5.91-.4-10.71-5.18-11.12-11.1-.49-7,5.05-12.84,11.95-12.84,1.49,0,2.92,.27,4.24,.77,1.17,.44,2.49,0,3.13-1.07h0c.82-1.37,.2-3.16-1.3-3.73-2.06-.78-4.31-1.18-6.66-1.1-9.07,.31-16.4,7.8-16.52,16.87-.13,9.56,7.58,17.35,17.11,17.35,2.14,0,4.18-.39,6.07-1.11,1.5-.57,2.12-2.35,1.3-3.73h0c-.65-1.08-1.97-1.51-3.14-1.07Z"/><rect class="cls-1" x="316.86" y="44.23" width="5.13" height="44.5" rx="1.82" ry="1.82"/><path class="cls-1" d="M345.14,54.41c-8.77,.4-15.88,7.52-16.29,16.29-.45,9.82,7.38,17.92,17.1,17.92,3.64,0,7.01-1.13,9.78-3.07,1.31-.91,1.47-2.79,.34-3.92-.88-.88-2.26-1-3.28-.29-2.1,1.46-4.68,2.27-7.47,2.13-5.71-.29-10.43-4.67-11.23-10.25h27.25c.94,0,1.71-.77,1.71-1.71,0-9.72-8.1-17.55-17.92-17.1Zm.81,5.12c5.43,0,10,3.61,11.48,8.56h-22.95c1.47-4.95,6.04-8.56,11.47-8.56Z"/></g></svg>