<?xml version="1.0" encoding="UTF-8" standalone="no"?>
<svg
   xmlns:dc="http://purl.org/dc/elements/1.1/"
   xmlns:cc="http://creativecommons.org/ns#"
   xmlns:rdf="http://www.w3.org/1999/02/22-rdf-syntax-ns#"
   xmlns:svg="http://www.w3.org/2000/svg"
   xmlns="http://www.w3.org/2000/svg"
   height="87"
   width="250.91333"
   xml:space="preserve"
   viewBox="0 0 250.91334 86.999999"
   y="0px"
   x="0px"
   id="Ebene_1"
   version="1.1"><metadata
   id="metadata107"><rdf:RDF><cc:Work
       rdf:about=""><dc:format>image/svg+xml</dc:format><dc:type
         rdf:resource="http://purl.org/dc/dcmitype/StillImage" /><dc:title></dc:title></cc:Work></rdf:RDF></metadata><defs
   id="defs105" />
<style
   id="style2"
   type="text/css">
	.st0{fill:#009FE3;}
	.st1{fill:#E6007E;}
</style>
<g
   transform="translate(-9.1866705,-13.2)"
   id="g88">
	<g
   style="fill:#ffffff"
   id="g68">
		<path
   style="fill:#ffffff"
   id="path4"
   d="m 149.7,31.7 c 0,8.6 -7.1,15.5 -16,15.5 H 121.4 V 16.1 h 12.4 c 8.8,0 15.9,6.8 15.9,15.6 z m -1.9,0 C 147.8,24 141.5,18 133.7,18 h -10.5 v 27.4 h 10.5 c 7.8,0 14.1,-6.1 14.1,-13.7 z" />
		<path
   style="fill:#ffffff"
   id="path6"
   d="m 175.7,38.3 h -18.2 l -4,8.9 h -2 l 14.1,-31.1 h 2 l 14.2,31.1 h -2 z m -0.9,-1.8 -8.3,-18.2 -8.2,18.2 z" />
		<path
   style="fill:#ffffff"
   id="path8"
   d="m 202.7,16.1 v 1.8 h -10.5 v 29.3 h -1.9 V 17.9 h -10.5 v -1.8 z" />
		<path
   style="fill:#ffffff"
   id="path10"
   d="m 225.1,38.3 h -18.2 l -4,8.9 h -2 L 215,16.1 h 2 l 14.2,31.1 h -2 z m -0.8,-1.8 -8.3,-18.2 -8.2,18.2 z" />
		<path
   style="fill:#ffffff"
   id="path12"
   d="m 136.9,52 c -7.9,0 -14.2,6.1 -14.2,13.7 0,7.7 6.4,13.8 14.2,13.8 3.7,0 7.2,-1.4 9.8,-3.8 l 1.2,1.3 c -2.9,2.7 -6.9,4.3 -11,4.3 -8.9,0 -16.1,-7 -16.1,-15.6 0,-8.6 7.2,-15.6 16.1,-15.6 4.2,0 8.1,1.6 10.9,4.2 l -1.1,1.4 C 144.1,53.4 140.6,52 136.9,52 Z" />
		<path
   style="fill:#ffffff"
   id="path14"
   d="m 164.7,70 v 11.4 h -1.8 V 70.1 L 150.4,50.3 h 2 l 11.3,17.5 11.2,-17.5 h 2 z" />
		<path
   style="fill:#ffffff"
   id="path16"
   d="m 193.3,52 c -7.9,0 -14.2,6.1 -14.2,13.7 0,7.7 6.4,13.8 14.2,13.8 3.7,0 7.2,-1.4 9.8,-3.8 l 1.2,1.3 c -2.9,2.7 -6.9,4.3 -11,4.3 -8.9,0 -16.1,-7 -16.1,-15.6 0,-8.6 7.2,-15.6 16.1,-15.6 4.2,0 8.1,1.6 10.9,4.2 l -1.1,1.4 C 200.5,53.4 197,52 193.3,52 Z" />
		<path
   style="fill:#ffffff"
   id="path18"
   d="m 213.6,50.3 v 29.3 h 13.8 v 1.8 H 211.7 V 50.3 Z" />
		<path
   style="fill:#ffffff"
   id="path20"
   d="m 254.1,50.3 v 1.8 h -18.2 v 12.4 h 16.2 v 1.9 h -16.2 v 13.2 h 18.8 v 1.8 H 234 V 50.3 Z" />
		<g
   style="fill:#ffffff"
   id="g66">
			<path
   style="fill:#ffffff"
   id="path22"
   d="m 121.2,95.1 c 0.1,0.6 0.4,1 0.7,1.2 0.4,0.2 0.9,0.4 1.7,0.4 0.4,0 0.7,0 1,-0.1 0.3,-0.1 0.5,-0.2 0.6,-0.3 0.2,-0.1 0.3,-0.3 0.3,-0.5 0.1,-0.2 0.1,-0.4 0.1,-0.6 0,-0.2 0,-0.3 -0.1,-0.5 0,-0.2 -0.1,-0.3 -0.2,-0.4 -0.1,-0.1 -0.3,-0.2 -0.5,-0.3 -0.2,-0.1 -0.5,-0.2 -0.8,-0.2 l -1,-0.2 c -0.4,-0.1 -0.7,-0.1 -1,-0.2 -0.3,-0.1 -0.5,-0.2 -0.7,-0.4 -0.2,-0.2 -0.4,-0.4 -0.5,-0.6 -0.1,-0.2 -0.2,-0.5 -0.2,-0.9 0,-0.3 0.1,-0.6 0.2,-0.9 0.1,-0.3 0.3,-0.5 0.6,-0.6 0.2,-0.2 0.5,-0.3 0.9,-0.4 0.3,-0.1 0.7,-0.1 1.1,-0.1 0.5,0 0.9,0.1 1.2,0.2 0.3,0.1 0.6,0.2 0.8,0.4 0.2,0.2 0.4,0.4 0.5,0.6 0.1,0.2 0.2,0.4 0.3,0.6 l -0.6,0.2 c -0.1,-0.2 -0.2,-0.4 -0.3,-0.6 -0.1,-0.2 -0.2,-0.3 -0.4,-0.4 -0.2,-0.1 -0.4,-0.2 -0.6,-0.3 -0.2,-0.1 -0.5,-0.1 -0.9,-0.1 -0.4,0 -0.7,0 -1,0.1 -0.3,0.1 -0.5,0.2 -0.6,0.3 -0.2,0.1 -0.3,0.3 -0.4,0.5 -0.1,0.2 -0.1,0.4 -0.1,0.6 0,0.2 0,0.4 0.1,0.5 0.1,0.1 0.1,0.3 0.3,0.4 0.1,0.1 0.3,0.2 0.5,0.3 0.2,0.1 0.5,0.1 0.8,0.2 l 1.1,0.2 c 0.4,0.1 0.7,0.2 1,0.3 0.3,0.1 0.5,0.3 0.7,0.4 0.2,0.2 0.3,0.4 0.4,0.6 0.1,0.2 0.1,0.5 0.1,0.8 0,0.3 -0.1,0.6 -0.2,0.8 -0.1,0.3 -0.3,0.5 -0.5,0.7 -0.2,0.2 -0.5,0.3 -0.8,0.5 -0.3,0.1 -0.7,0.2 -1.2,0.2 -0.4,0 -0.8,0 -1.2,-0.1 -0.4,-0.1 -0.7,-0.2 -0.9,-0.4 -0.3,-0.2 -0.5,-0.4 -0.7,-0.7 -0.2,-0.3 -0.3,-0.6 -0.3,-1 h 0.7 z" />
			<path
   style="fill:#ffffff"
   id="path24"
   d="m 127.7,91.7 h 0.6 v 0.9 c 0.3,-0.4 0.6,-0.6 0.9,-0.8 0.3,-0.2 0.6,-0.3 1,-0.3 0.4,0 0.8,0.1 1,0.3 0.3,0.2 0.4,0.4 0.6,0.8 0.3,-0.3 0.5,-0.6 0.9,-0.8 0.4,-0.2 0.7,-0.3 1.1,-0.3 0.5,0 0.9,0.1 1.3,0.4 0.4,0.3 0.5,0.7 0.5,1.3 V 97 H 135 v -3.6 c 0,-0.3 0,-0.5 -0.1,-0.7 0,-0.2 -0.1,-0.3 -0.2,-0.4 -0.1,-0.1 -0.2,-0.2 -0.4,-0.2 -0.1,0 -0.3,-0.1 -0.5,-0.1 -0.2,0 -0.4,0 -0.6,0.1 -0.2,0.1 -0.4,0.2 -0.6,0.3 -0.2,0.1 -0.3,0.3 -0.4,0.5 -0.1,0.2 -0.2,0.4 -0.2,0.7 v 3.5 h -0.6 v -3.6 c 0,-0.5 -0.1,-0.9 -0.3,-1.1 -0.2,-0.2 -0.5,-0.3 -0.9,-0.3 -0.2,0 -0.4,0 -0.6,0.1 -0.2,0.1 -0.4,0.2 -0.6,0.4 -0.1,0.1 -0.1,0.1 -0.2,0.2 -0.1,0.1 -0.1,0.2 -0.2,0.3 -0.1,0.1 -0.1,0.2 -0.1,0.4 0,0.1 -0.1,0.3 -0.1,0.5 v 3.2 h -0.6 v -5.5 z" />
			<path
   style="fill:#ffffff"
   id="path26"
   d="m 140.5,96.3 c -0.1,0.1 -0.2,0.2 -0.3,0.3 -0.1,0.1 -0.3,0.2 -0.4,0.3 -0.2,0.1 -0.3,0.2 -0.5,0.2 -0.2,0 -0.4,0.1 -0.7,0.1 -0.6,0 -1.1,-0.1 -1.4,-0.4 -0.4,-0.3 -0.5,-0.7 -0.5,-1.2 0,-0.4 0.1,-0.7 0.2,-0.9 0.2,-0.2 0.4,-0.4 0.6,-0.5 0.3,-0.1 0.6,-0.2 0.9,-0.3 0.3,-0.1 0.7,-0.1 1,-0.1 h 1.1 v -0.2 c 0,-0.5 -0.1,-0.9 -0.3,-1.2 C 140,92.1 139.5,92 139,92 c -0.3,0 -0.5,0 -0.7,0.1 -0.2,0.1 -0.3,0.1 -0.5,0.2 -0.1,0.1 -0.2,0.2 -0.3,0.3 -0.1,0.1 -0.1,0.2 -0.2,0.4 l -0.6,-0.1 c 0.2,-0.9 0.9,-1.3 2.2,-1.3 0.4,0 0.7,0 1,0.1 0.3,0.1 0.5,0.2 0.6,0.4 0.2,0.2 0.3,0.4 0.4,0.6 0.1,0.2 0.1,0.5 0.1,0.9 v 3.6 h -0.6 v -0.9 z m 0,-2.1 h -1 c -0.4,0 -0.8,0.1 -1,0.1 -0.3,0.1 -0.5,0.1 -0.7,0.3 -0.2,0.1 -0.3,0.2 -0.4,0.4 -0.1,0.2 -0.1,0.3 -0.1,0.6 0,0.3 0.1,0.6 0.3,0.8 0.2,0.2 0.5,0.3 1,0.3 0.2,0 0.5,0 0.7,-0.1 0.2,-0.1 0.4,-0.1 0.6,-0.3 0.1,-0.1 0.2,-0.2 0.3,-0.3 0.1,-0.1 0.2,-0.2 0.2,-0.3 0.1,-0.1 0.1,-0.2 0.1,-0.3 0,-0.1 0,-0.3 0,-0.4 z" />
			<path
   style="fill:#ffffff"
   id="path28"
   d="m 142.6,91.7 h 0.6 v 0.9 c 0.2,-0.3 0.5,-0.5 0.8,-0.7 0.3,-0.2 0.6,-0.3 0.9,-0.3 0.1,0 0.2,0 0.2,0 0.1,0 0.1,0 0.2,0 l -0.1,0.6 c -0.1,0 -0.2,0 -0.4,0 -0.2,0 -0.4,0 -0.6,0.1 -0.2,0.1 -0.4,0.2 -0.6,0.3 -0.2,0.1 -0.3,0.3 -0.4,0.5 -0.1,0.2 -0.2,0.4 -0.2,0.7 v 3.3 h -0.6 v -5.4 z" />
			<path
   style="fill:#ffffff"
   id="path30"
   d="M 146.8,92.2 H 146 v -0.5 h 0.9 v -1.5 h 0.6 v 1.5 h 1.6 v 0.5 h -1.6 v 3.5 c 0,0.3 0.1,0.5 0.2,0.7 0.1,0.2 0.3,0.3 0.6,0.3 0.2,0 0.3,0 0.5,0 0.1,0 0.2,-0.1 0.3,-0.1 l 0.1,0.5 c -0.1,0 -0.2,0.1 -0.4,0.1 -0.2,0 -0.4,0.1 -0.6,0.1 -0.3,0 -0.6,-0.1 -0.7,-0.2 -0.2,-0.1 -0.3,-0.2 -0.4,-0.4 -0.1,-0.2 -0.1,-0.4 -0.2,-0.6 0,-0.2 0,-0.5 0,-0.7 v -3.2 z" />
			<path
   style="fill:#ffffff"
   id="path32"
   d="m 154.5,95.6 c -0.1,0.5 -0.3,0.9 -0.7,1.1 -0.4,0.3 -0.9,0.4 -1.6,0.4 -0.8,0 -1.4,-0.3 -1.9,-0.8 -0.4,-0.5 -0.7,-1.2 -0.7,-2.1 0,-0.5 0.1,-0.9 0.2,-1.3 0.1,-0.4 0.3,-0.7 0.5,-0.9 0.2,-0.2 0.5,-0.4 0.8,-0.6 0.3,-0.1 0.6,-0.2 1,-0.2 0.4,0 0.8,0.1 1.1,0.2 0.3,0.1 0.5,0.3 0.7,0.6 0.2,0.2 0.3,0.5 0.4,0.8 0.1,0.3 0.1,0.7 0.1,1 v 0.4 h -4.3 c 0,0.3 0,0.6 0.1,0.9 0.1,0.3 0.2,0.5 0.4,0.7 0.2,0.2 0.4,0.4 0.6,0.5 0.2,0.1 0.5,0.2 0.8,0.2 0.3,0 0.5,0 0.7,-0.1 0.2,-0.1 0.4,-0.1 0.5,-0.2 0.1,-0.1 0.2,-0.2 0.3,-0.3 0.1,-0.1 0.1,-0.3 0.2,-0.4 h 0.8 z M 153.9,94 c 0,-0.3 0,-0.6 -0.1,-0.8 -0.1,-0.2 -0.2,-0.5 -0.3,-0.6 -0.1,-0.2 -0.3,-0.3 -0.5,-0.4 -0.2,-0.1 -0.5,-0.1 -0.8,-0.1 -0.5,0 -1,0.2 -1.3,0.5 -0.3,0.3 -0.5,0.8 -0.6,1.5 h 3.6 z" />
			<path
   style="fill:#ffffff"
   id="path34"
   d="m 156.2,95.6 c 0.1,0.4 0.3,0.7 0.6,0.9 0.3,0.2 0.7,0.3 1.2,0.3 0.5,0 0.9,-0.1 1.1,-0.3 0.2,-0.2 0.3,-0.4 0.3,-0.7 0,-0.1 0,-0.2 0,-0.4 0,-0.1 -0.1,-0.2 -0.2,-0.3 -0.1,-0.1 -0.2,-0.2 -0.4,-0.2 -0.2,-0.1 -0.4,-0.1 -0.6,-0.2 l -0.7,-0.1 c -0.3,0 -0.6,-0.1 -0.8,-0.2 -0.2,-0.1 -0.4,-0.2 -0.6,-0.3 -0.2,-0.1 -0.3,-0.3 -0.4,-0.4 -0.1,-0.2 -0.1,-0.4 -0.1,-0.6 0,-0.2 0.1,-0.5 0.2,-0.6 0.1,-0.2 0.3,-0.4 0.4,-0.5 0.2,-0.1 0.4,-0.2 0.7,-0.3 0.3,-0.1 0.5,-0.1 0.8,-0.1 0.4,0 0.7,0 1,0.1 0.3,0.1 0.5,0.2 0.6,0.3 0.2,0.1 0.3,0.3 0.4,0.4 0.1,0.2 0.2,0.3 0.2,0.5 l -0.6,0.1 c -0.1,-0.2 -0.1,-0.3 -0.2,-0.4 -0.1,-0.1 -0.2,-0.2 -0.3,-0.3 -0.1,-0.1 -0.3,-0.1 -0.4,-0.2 -0.2,0 -0.4,-0.1 -0.6,-0.1 -0.3,0 -0.5,0 -0.7,0.1 -0.2,0.1 -0.4,0.1 -0.5,0.2 -0.1,0.1 -0.2,0.2 -0.3,0.3 -0.1,0.1 -0.1,0.2 -0.1,0.4 0,0.1 0,0.2 0,0.3 0,0.1 0.1,0.2 0.2,0.3 0.1,0.1 0.2,0.1 0.4,0.2 0.2,0.1 0.4,0.1 0.6,0.1 l 0.9,0.1 c 0.6,0.1 1,0.3 1.3,0.5 0.3,0.2 0.4,0.6 0.4,1.1 0,0.2 0,0.4 -0.1,0.6 -0.1,0.2 -0.2,0.4 -0.4,0.5 -0.2,0.1 -0.4,0.2 -0.7,0.3 -0.3,0.1 -0.6,0.1 -0.9,0.1 -0.3,0 -0.7,0 -0.9,-0.1 -0.3,-0.1 -0.5,-0.2 -0.7,-0.3 -0.2,-0.1 -0.4,-0.3 -0.5,-0.5 -0.1,-0.2 -0.2,-0.5 -0.2,-0.8 h 0.6 z" />
			<path
   style="fill:#ffffff"
   id="path36"
   d="m 164,89.6 h 2.6 c 0.5,0 1,0.1 1.5,0.2 0.4,0.2 0.8,0.4 1.1,0.7 0.3,0.3 0.5,0.7 0.7,1.1 0.2,0.5 0.2,1 0.2,1.6 0,0.6 -0.1,1.2 -0.3,1.7 -0.2,0.5 -0.4,0.9 -0.7,1.2 -0.3,0.3 -0.7,0.6 -1.2,0.7 -0.5,0.2 -1,0.2 -1.5,0.2 H 164 Z m 2.4,6.9 c 1,0 1.8,-0.3 2.3,-0.8 0.5,-0.6 0.7,-1.3 0.7,-2.4 0,-1 -0.2,-1.8 -0.7,-2.3 -0.4,-0.5 -1.2,-0.8 -2.1,-0.8 h -1.9 v 6.4 h 1.7 z" />
			<path
   style="fill:#ffffff"
   id="path38"
   d="m 174.8,96.3 c -0.1,0.1 -0.2,0.2 -0.3,0.3 -0.1,0.1 -0.3,0.2 -0.4,0.3 -0.2,0.1 -0.3,0.2 -0.5,0.2 -0.2,0 -0.4,0.1 -0.7,0.1 -0.6,0 -1.1,-0.1 -1.4,-0.4 -0.4,-0.3 -0.5,-0.7 -0.5,-1.2 0,-0.4 0.1,-0.7 0.2,-0.9 0.2,-0.2 0.4,-0.4 0.6,-0.5 0.3,-0.1 0.6,-0.2 0.9,-0.3 0.3,-0.1 0.7,-0.1 1,-0.1 h 1.1 v -0.2 c 0,-0.5 -0.1,-0.9 -0.3,-1.2 -0.2,-0.3 -0.6,-0.4 -1.1,-0.4 -0.3,0 -0.5,0 -0.7,0.1 -0.2,0 -0.3,0.1 -0.5,0.2 -0.1,0.1 -0.2,0.2 -0.3,0.3 -0.1,0.1 -0.1,0.2 -0.2,0.4 l -0.6,-0.1 c 0.2,-0.9 0.9,-1.3 2.2,-1.3 0.4,0 0.7,0 1,0.1 0.3,0.1 0.5,0.2 0.6,0.4 0.2,0.2 0.3,0.4 0.4,0.6 0.1,0.2 0.1,0.5 0.1,0.9 v 3.6 h -0.6 z m -0.1,-2.1 h -1 c -0.4,0 -0.8,0.1 -1,0.1 -0.3,0.1 -0.5,0.1 -0.7,0.3 -0.2,0.1 -0.3,0.2 -0.4,0.4 -0.1,0.2 -0.1,0.3 -0.1,0.6 0,0.3 0.1,0.6 0.3,0.8 0.2,0.2 0.5,0.3 1,0.3 0.2,0 0.5,0 0.7,-0.1 0.2,-0.1 0.4,-0.1 0.6,-0.3 0.1,-0.1 0.2,-0.2 0.3,-0.3 0.1,-0.1 0.2,-0.2 0.2,-0.3 0,-0.1 0.1,-0.2 0.1,-0.3 0,-0.1 0,-0.3 0,-0.4 z" />
			<path
   style="fill:#ffffff"
   id="path40"
   d="m 177.2,92.2 h -0.9 v -0.5 h 0.9 v -1.5 h 0.6 v 1.5 h 1.6 v 0.5 h -1.6 v 3.5 c 0,0.3 0.1,0.5 0.2,0.7 0.1,0.2 0.3,0.3 0.6,0.3 0.2,0 0.3,0 0.5,0 0.1,0 0.2,-0.1 0.3,-0.1 l 0.1,0.5 c -0.1,0 -0.2,0.1 -0.4,0.1 -0.2,0 -0.4,0.1 -0.6,0.1 -0.3,0 -0.6,-0.1 -0.7,-0.2 -0.2,-0.1 -0.3,-0.2 -0.4,-0.4 -0.1,-0.2 -0.1,-0.4 -0.2,-0.6 0,-0.2 0,-0.5 0,-0.7 z" />
			<path
   style="fill:#ffffff"
   id="path42"
   d="m 184.9,95.6 c -0.1,0.5 -0.3,0.9 -0.7,1.1 -0.4,0.3 -0.9,0.4 -1.6,0.4 -0.8,0 -1.4,-0.3 -1.9,-0.8 -0.4,-0.5 -0.7,-1.2 -0.7,-2.1 0,-0.5 0.1,-0.9 0.2,-1.3 0.1,-0.4 0.3,-0.7 0.5,-0.9 0.2,-0.2 0.5,-0.4 0.8,-0.6 0.3,-0.1 0.6,-0.2 1,-0.2 0.4,0 0.8,0.1 1.1,0.2 0.3,0.1 0.5,0.3 0.7,0.6 0.2,0.2 0.3,0.5 0.4,0.8 0.1,0.3 0.1,0.7 0.1,1 v 0.4 h -4.3 c 0,0.3 0,0.6 0.1,0.9 0.1,0.3 0.2,0.5 0.4,0.7 0.2,0.2 0.4,0.4 0.6,0.5 0.2,0.1 0.5,0.2 0.8,0.2 0.3,0 0.5,0 0.7,-0.1 0.2,-0.1 0.4,-0.1 0.5,-0.2 0.1,-0.1 0.2,-0.2 0.3,-0.3 0.1,-0.1 0.1,-0.3 0.2,-0.4 h 0.8 z M 184.3,94 c 0,-0.3 0,-0.6 -0.1,-0.8 -0.1,-0.2 -0.2,-0.5 -0.3,-0.6 -0.1,-0.2 -0.3,-0.3 -0.5,-0.4 -0.2,-0.1 -0.5,-0.1 -0.8,-0.1 -0.5,0 -1,0.2 -1.3,0.5 -0.3,0.3 -0.5,0.8 -0.6,1.5 h 3.6 z" />
			<path
   style="fill:#ffffff"
   id="path44"
   d="m 186.3,91.7 h 0.6 v 0.9 c 0.3,-0.4 0.6,-0.6 1,-0.8 0.3,-0.2 0.7,-0.2 1.1,-0.2 0.6,0 1.1,0.2 1.4,0.5 0.3,0.3 0.5,0.8 0.5,1.5 v 3.6 h -0.6 v -3.4 c 0,-0.6 -0.1,-1 -0.3,-1.2 -0.2,-0.2 -0.5,-0.4 -1,-0.4 -0.2,0 -0.4,0 -0.7,0.1 -0.3,0.1 -0.5,0.2 -0.7,0.4 -0.2,0.2 -0.4,0.4 -0.5,0.6 -0.1,0.2 -0.2,0.5 -0.2,0.8 v 3.2 h -0.6 z" />
			<path
   style="fill:#ffffff"
   id="path46"
   d="m 192.3,91.7 h 0.6 v 0.9 c 0.3,-0.4 0.6,-0.6 0.9,-0.8 0.3,-0.2 0.6,-0.3 1,-0.3 0.4,0 0.8,0.1 1,0.3 0.3,0.2 0.4,0.4 0.6,0.8 0.3,-0.3 0.5,-0.6 0.9,-0.8 0.4,-0.2 0.7,-0.3 1.1,-0.3 0.5,0 0.9,0.1 1.3,0.4 0.3,0.3 0.5,0.7 0.5,1.3 V 97 h -0.6 v -3.6 c 0,-0.3 0,-0.5 -0.1,-0.7 0,-0.2 -0.1,-0.3 -0.2,-0.4 -0.1,-0.1 -0.2,-0.2 -0.4,-0.2 -0.1,0 -0.3,-0.1 -0.5,-0.1 -0.2,0 -0.4,0 -0.6,0.1 -0.2,0.1 -0.4,0.2 -0.6,0.3 -0.2,0.1 -0.3,0.3 -0.4,0.5 -0.1,0.2 -0.2,0.4 -0.2,0.7 v 3.5 H 196 v -3.6 c 0,-0.5 -0.1,-0.9 -0.3,-1.1 -0.2,-0.2 -0.5,-0.3 -0.9,-0.3 -0.2,0 -0.4,0 -0.6,0.1 -0.2,0.1 -0.4,0.2 -0.6,0.4 -0.1,0.1 -0.1,0.1 -0.2,0.2 -0.1,0.1 -0.1,0.2 -0.2,0.3 -0.1,0.1 -0.1,0.2 -0.1,0.4 0,0.1 -0.1,0.3 -0.1,0.5 v 3.2 h -0.6 v -5.5 z" />
			<path
   style="fill:#ffffff"
   id="path48"
   d="m 205,96.3 c -0.1,0.1 -0.2,0.2 -0.3,0.3 -0.1,0.1 -0.3,0.2 -0.4,0.3 -0.2,0.1 -0.3,0.2 -0.5,0.2 -0.2,0 -0.4,0.1 -0.7,0.1 -0.6,0 -1.1,-0.1 -1.4,-0.4 -0.4,-0.3 -0.5,-0.7 -0.5,-1.2 0,-0.4 0.1,-0.7 0.2,-0.9 0.2,-0.2 0.4,-0.4 0.6,-0.5 0.3,-0.1 0.6,-0.2 0.9,-0.3 0.3,-0.1 0.7,-0.1 1,-0.1 h 1.1 v -0.2 c 0,-0.5 -0.1,-0.9 -0.3,-1.2 -0.2,-0.3 -0.6,-0.4 -1.1,-0.4 -0.3,0 -0.5,0 -0.7,0.1 -0.2,0 -0.3,0.1 -0.5,0.2 -0.1,0.1 -0.2,0.2 -0.3,0.3 -0.1,0.1 -0.1,0.2 -0.2,0.4 l -0.6,-0.1 c 0.2,-0.9 0.9,-1.3 2.2,-1.3 0.4,0 0.7,0 1,0.1 0.3,0.1 0.5,0.2 0.6,0.4 0.2,0.2 0.3,0.4 0.4,0.6 0.1,0.2 0.1,0.5 0.1,0.9 v 3.6 H 205 Z m 0,-2.1 h -1 c -0.4,0 -0.8,0.1 -1,0.1 -0.3,0.1 -0.5,0.1 -0.7,0.3 -0.2,0.1 -0.3,0.2 -0.4,0.4 -0.1,0.2 -0.1,0.3 -0.1,0.6 0,0.3 0.1,0.6 0.3,0.8 0.2,0.2 0.5,0.3 1,0.3 0.2,0 0.5,0 0.7,-0.1 0.2,-0.1 0.4,-0.1 0.6,-0.3 0.1,-0.1 0.2,-0.2 0.3,-0.3 0.1,-0.1 0.2,-0.2 0.2,-0.3 0,-0.1 0.1,-0.2 0.1,-0.3 0,-0.1 0,-0.3 0,-0.4 z" />
			<path
   style="fill:#ffffff"
   id="path50"
   d="m 207.2,91.7 h 0.6 v 0.9 c 0.3,-0.4 0.6,-0.6 1,-0.8 0.3,-0.2 0.7,-0.2 1.1,-0.2 0.6,0 1.1,0.2 1.4,0.5 0.3,0.3 0.5,0.8 0.5,1.5 v 3.6 h -0.6 v -3.4 c 0,-0.6 -0.1,-1 -0.3,-1.2 -0.2,-0.2 -0.5,-0.4 -1,-0.4 -0.2,0 -0.4,0 -0.7,0.1 -0.3,0.1 -0.5,0.2 -0.7,0.4 -0.2,0.2 -0.4,0.4 -0.5,0.6 -0.1,0.2 -0.2,0.5 -0.2,0.8 v 3.2 h -0.6 z" />
			<path
   style="fill:#ffffff"
   id="path52"
   d="m 216.7,96.3 c -0.1,0.1 -0.2,0.2 -0.3,0.3 -0.1,0.1 -0.3,0.2 -0.4,0.3 -0.2,0.1 -0.3,0.2 -0.5,0.2 -0.2,0 -0.4,0.1 -0.7,0.1 -0.6,0 -1.1,-0.1 -1.4,-0.4 -0.4,-0.3 -0.5,-0.7 -0.5,-1.2 0,-0.4 0.1,-0.7 0.2,-0.9 0.2,-0.2 0.4,-0.4 0.6,-0.5 0.3,-0.1 0.6,-0.2 0.9,-0.3 0.3,-0.1 0.7,-0.1 1,-0.1 h 1.1 v -0.2 c 0,-0.5 -0.1,-0.9 -0.3,-1.2 -0.2,-0.3 -0.6,-0.4 -1.1,-0.4 -0.3,0 -0.5,0 -0.7,0.1 -0.2,0 -0.3,0.1 -0.5,0.2 -0.1,0.1 -0.2,0.2 -0.3,0.3 -0.1,0.1 -0.1,0.2 -0.2,0.4 L 213,92.9 c 0.2,-0.9 0.9,-1.3 2.2,-1.3 0.4,0 0.7,0 1,0.1 0.3,0.1 0.5,0.2 0.6,0.4 0.2,0.2 0.3,0.4 0.4,0.6 0.1,0.2 0.1,0.5 0.1,0.9 v 3.6 h -0.6 z m 0,-2.1 h -1 c -0.4,0 -0.8,0.1 -1,0.1 -0.3,0.1 -0.5,0.1 -0.7,0.3 -0.2,0.1 -0.3,0.2 -0.4,0.4 -0.1,0.2 -0.1,0.3 -0.1,0.6 0,0.3 0.1,0.6 0.3,0.8 0.2,0.2 0.5,0.3 1,0.3 0.2,0 0.5,0 0.7,-0.1 0.2,-0.1 0.4,-0.1 0.6,-0.3 0.1,-0.1 0.2,-0.2 0.3,-0.3 0.1,-0.1 0.2,-0.2 0.2,-0.3 0,-0.1 0.1,-0.2 0.1,-0.3 0,-0.1 0,-0.3 0,-0.4 z" />
			<path
   style="fill:#ffffff"
   id="path54"
   d="m 219.5,97.6 c 0.1,0.4 0.3,0.6 0.5,0.8 0.3,0.2 0.7,0.3 1.2,0.3 0.6,0 1.1,-0.1 1.3,-0.4 0.3,-0.3 0.4,-0.8 0.4,-1.5 V 96 c -0.2,0.3 -0.5,0.6 -0.8,0.7 -0.3,0.2 -0.7,0.3 -1.1,0.3 -0.4,0 -0.8,-0.1 -1.1,-0.2 -0.3,-0.2 -0.6,-0.4 -0.7,-0.6 -0.2,-0.3 -0.3,-0.5 -0.4,-0.9 -0.1,-0.3 -0.1,-0.7 -0.1,-1 0,-0.4 0.1,-0.8 0.2,-1.1 0.1,-0.3 0.3,-0.6 0.5,-0.9 0.2,-0.2 0.5,-0.4 0.8,-0.6 0.3,-0.1 0.7,-0.2 1,-0.2 0.3,0 0.6,0.1 0.9,0.2 0.3,0.1 0.6,0.4 0.9,0.7 v -0.7 h 0.6 v 5.2 c 0,0.7 -0.2,1.3 -0.6,1.7 -0.4,0.4 -1,0.6 -1.8,0.6 -0.3,0 -0.6,0 -0.9,-0.1 -0.3,-0.1 -0.5,-0.1 -0.7,-0.3 -0.2,-0.1 -0.4,-0.3 -0.5,-0.5 -0.1,-0.2 -0.2,-0.4 -0.2,-0.7 z m 3.5,-3.5 c 0,-0.2 0,-0.5 0,-0.6 0,-0.2 -0.1,-0.3 -0.1,-0.5 -0.1,-0.1 -0.1,-0.3 -0.2,-0.4 -0.1,-0.1 -0.2,-0.2 -0.3,-0.3 -0.2,-0.1 -0.4,-0.2 -0.5,-0.3 -0.2,-0.1 -0.4,-0.1 -0.6,-0.1 -0.3,0 -0.5,0 -0.7,0.1 -0.2,0.1 -0.4,0.2 -0.6,0.4 -0.2,0.2 -0.3,0.4 -0.4,0.7 -0.1,0.3 -0.1,0.6 -0.1,1 0,0.4 0.1,0.7 0.2,1 0.1,0.3 0.2,0.5 0.4,0.7 0.2,0.2 0.4,0.3 0.6,0.4 0.2,0.1 0.4,0.1 0.6,0.1 0.2,0 0.4,0 0.6,-0.1 0.2,0 0.3,-0.1 0.5,-0.3 0.3,-0.2 0.4,-0.4 0.6,-0.7 0.1,-0.3 0.2,-0.6 0.2,-1.1 v 0 z" />
			<path
   style="fill:#ffffff"
   id="path56"
   d="m 229.8,95.6 c -0.1,0.5 -0.3,0.9 -0.7,1.1 -0.4,0.3 -0.9,0.4 -1.6,0.4 -0.8,0 -1.4,-0.3 -1.9,-0.8 -0.4,-0.5 -0.7,-1.2 -0.7,-2.1 0,-0.5 0.1,-0.9 0.2,-1.3 0.1,-0.4 0.3,-0.7 0.5,-0.9 0.2,-0.2 0.5,-0.4 0.8,-0.6 0.3,-0.1 0.6,-0.2 1,-0.2 0.4,0 0.8,0.1 1.1,0.2 0.3,0.1 0.5,0.3 0.7,0.6 0.2,0.3 0.3,0.5 0.4,0.8 0.1,0.3 0.1,0.7 0.1,1 v 0.4 h -4.3 c 0,0.3 0,0.6 0.1,0.9 0.1,0.3 0.2,0.5 0.4,0.7 0.2,0.2 0.4,0.4 0.6,0.5 0.2,0.1 0.5,0.2 0.8,0.2 0.3,0 0.5,0 0.7,-0.1 0.2,-0.1 0.4,-0.1 0.5,-0.2 0.1,-0.1 0.2,-0.2 0.3,-0.3 0.1,-0.1 0.1,-0.3 0.2,-0.4 h 0.8 z M 229.2,94 c 0,-0.3 0,-0.6 -0.1,-0.8 -0.1,-0.2 -0.2,-0.5 -0.3,-0.6 -0.1,-0.2 -0.3,-0.3 -0.5,-0.4 -0.2,-0.1 -0.5,-0.1 -0.8,-0.1 -0.5,0 -1,0.2 -1.3,0.5 -0.3,0.3 -0.5,0.8 -0.6,1.5 h 3.6 z" />
			<path
   style="fill:#ffffff"
   id="path58"
   d="m 231.2,91.7 h 0.6 v 0.9 c 0.3,-0.4 0.6,-0.6 0.9,-0.8 0.3,-0.2 0.6,-0.3 1,-0.3 0.4,0 0.8,0.1 1,0.3 0.3,0.2 0.4,0.4 0.6,0.8 0.3,-0.3 0.5,-0.6 0.9,-0.8 0.4,-0.2 0.7,-0.3 1.1,-0.3 0.5,0 0.9,0.1 1.3,0.4 0.3,0.3 0.5,0.7 0.5,1.3 V 97 h -0.6 v -3.6 c 0,-0.3 0,-0.5 -0.1,-0.7 0,-0.2 -0.1,-0.3 -0.2,-0.4 -0.1,-0.1 -0.2,-0.2 -0.4,-0.2 -0.1,0 -0.3,-0.1 -0.5,-0.1 -0.2,0 -0.4,0 -0.6,0.1 -0.2,0.1 -0.4,0.2 -0.6,0.3 -0.2,0.1 -0.3,0.3 -0.4,0.5 -0.1,0.2 -0.2,0.4 -0.2,0.7 v 3.5 h -0.6 v -3.6 c 0,-0.5 -0.1,-0.9 -0.3,-1.1 -0.2,-0.2 -0.5,-0.3 -0.9,-0.3 -0.2,0 -0.4,0 -0.6,0.1 -0.2,0.1 -0.4,0.2 -0.6,0.4 -0.1,0.1 -0.1,0.1 -0.2,0.2 -0.1,0.1 -0.1,0.2 -0.2,0.3 -0.1,0.1 -0.1,0.2 -0.1,0.4 0,0.1 -0.1,0.3 -0.1,0.5 v 3.2 h -0.6 v -5.5 z" />
			<path
   style="fill:#ffffff"
   id="path60"
   d="m 245,95.6 c -0.1,0.5 -0.3,0.9 -0.7,1.1 -0.4,0.3 -0.9,0.4 -1.6,0.4 -0.8,0 -1.4,-0.3 -1.9,-0.8 -0.4,-0.5 -0.7,-1.2 -0.7,-2.1 0,-0.5 0.1,-0.9 0.2,-1.3 0.1,-0.4 0.3,-0.7 0.5,-0.9 0.2,-0.2 0.5,-0.4 0.8,-0.6 0.3,-0.1 0.6,-0.2 1,-0.2 0.4,0 0.8,0.1 1.1,0.2 0.3,0.1 0.5,0.3 0.7,0.6 0.2,0.2 0.3,0.5 0.4,0.8 0.1,0.3 0.1,0.7 0.1,1 v 0.4 h -4.3 c 0,0.3 0,0.6 0.1,0.9 0.1,0.3 0.2,0.5 0.4,0.7 0.2,0.2 0.4,0.4 0.6,0.5 0.2,0.1 0.5,0.2 0.8,0.2 0.3,0 0.5,0 0.7,-0.1 0.2,-0.1 0.4,-0.1 0.5,-0.2 0.1,-0.1 0.2,-0.2 0.3,-0.3 0.1,-0.1 0.1,-0.3 0.2,-0.4 H 245 Z M 244.5,94 c 0,-0.3 0,-0.6 -0.1,-0.8 -0.1,-0.2 -0.2,-0.5 -0.3,-0.6 -0.1,-0.2 -0.3,-0.3 -0.5,-0.4 -0.2,-0.1 -0.5,-0.1 -0.8,-0.1 -0.5,0 -1,0.2 -1.3,0.5 -0.3,0.3 -0.5,0.8 -0.6,1.5 h 3.6 z" />
			<path
   style="fill:#ffffff"
   id="path62"
   d="m 246.4,91.7 h 0.6 v 0.9 c 0.3,-0.4 0.6,-0.6 1,-0.8 0.3,-0.2 0.7,-0.2 1.1,-0.2 0.6,0 1.1,0.2 1.4,0.5 0.3,0.3 0.5,0.8 0.5,1.5 v 3.6 h -0.6 v -3.4 c 0,-0.6 -0.1,-1 -0.3,-1.2 -0.2,-0.2 -0.5,-0.4 -1,-0.4 -0.2,0 -0.4,0 -0.7,0.1 -0.3,0.1 -0.5,0.2 -0.7,0.4 -0.2,0.2 -0.4,0.4 -0.5,0.6 -0.1,0.2 -0.2,0.5 -0.2,0.8 v 3.2 h -0.6 z" />
			<path
   style="fill:#ffffff"
   id="path64"
   d="m 252.8,92.2 h -0.9 v -0.5 h 0.9 v -1.5 h 0.6 v 1.5 h 1.6 v 0.5 h -1.6 v 3.5 c 0,0.3 0.1,0.5 0.2,0.7 0.1,0.2 0.3,0.3 0.6,0.3 0.2,0 0.3,0 0.5,0 0.1,0 0.2,-0.1 0.3,-0.1 l 0.1,0.5 c -0.1,0 -0.2,0.1 -0.4,0.1 -0.2,0 -0.4,0.1 -0.6,0.1 -0.3,0 -0.6,-0.1 -0.7,-0.2 -0.2,-0.1 -0.3,-0.2 -0.4,-0.4 -0.1,-0.2 -0.1,-0.4 -0.2,-0.6 0,-0.2 0,-0.5 0,-0.7 z" />
		</g>
	</g>
	<g
   id="g86">
		<g
   id="g82">
			<g
   id="g72">
				
					<rect
   style="fill:#009fe3"
   id="rect70"
   height="21.700001"
   width="21.700001"
   class="st0"
   transform="matrix(0.7071,-0.7071,0.7071,0.7071,-26.5971,48.1504)"
   y="45.299999"
   x="34" />
			</g>
			<g
   id="g76">
				
					<rect
   style="fill:#e6007e"
   id="rect74"
   height="21.700001"
   width="21.700001"
   class="st1"
   transform="matrix(0.7071,-0.7071,0.7071,0.7071,-20.2491,32.8249)"
   y="30"
   x="18.700001" />
			</g>
			<g
   id="g80">
				<rect
   id="rect78"
   height="21.700001"
   width="21.700001"
   transform="matrix(0.7071,-0.7071,0.7071,0.7071,-41.9226,41.8024)"
   y="60.700001"
   x="18.700001" />
			</g>
		</g>
		<path
   style="fill:#009fe3"
   id="path84"
   d="M 100.2,54.7 C 99.4,32 80.7,14.2 58.2,14.2 c -0.5,0 -1,0 -1.5,0 -10.6,0.4 -20.1,4.7 -27.2,11.4 l 15.3,15.3 c 0,0 4.7,-5 12.7,-5 0.3,0 0.5,0 0.8,0 v 0 c 11,0 20,8.6 20.4,19.7 0.4,11.2 -8.4,20.7 -19.7,21.1 -0.3,0 -0.5,0 -0.8,0 -5.2,0 -9.9,-1.9 -13.5,-5.1 L 29.5,86.8 c 7.5,7.1 17.7,11.4 28.7,11.4 0.5,0 1,0 1.5,0 23.2,-0.9 41.4,-20.4 40.5,-43.5 z"
   class="st0" />
	</g>
</g>
<g
   transform="translate(-9.1866705,-13.2)"
   id="g90">
</g>
<g
   transform="translate(-9.1866705,-13.2)"
   id="g92">
</g>
<g
   transform="translate(-9.1866705,-13.2)"
   id="g94">
</g>
<g
   transform="translate(-9.1866705,-13.2)"
   id="g96">
</g>
<g
   transform="translate(-9.1866705,-13.2)"
   id="g98">
</g>
<g
   transform="translate(-9.1866705,-13.2)"
   id="g100">
</g>
</svg>