<svg id="Ebene_1" data-name="Ebene 1" xmlns="http://www.w3.org/2000/svg" width="43.75mm" height="20mm" viewBox="0 0 124.016 56.693"><defs><style>.cls-1{fill:#e50043;}</style></defs><path class="cls-1" d="M0,0V56.693H56.693V0ZM46.063,46.063H10.63V10.63H46.063Z"/><path class="cls-1" d="M67.323,28.346h0A28.346,28.346,0,0,0,95.669,56.693h0a28.347,28.347,0,0,0,28.347-28.347h0A28.346,28.346,0,0,0,95.669,0h0A28.346,28.346,0,0,0,67.323,28.346ZM95.669,46.063h0A17.717,17.717,0,0,1,77.953,28.346h0A17.716,17.716,0,0,1,95.669,10.63h0a17.717,17.717,0,0,1,17.717,17.716h0A17.717,17.717,0,0,1,95.669,46.063Z"/></svg>