<svg id="Ebene_1" data-name="Ebene 1" xmlns="http://www.w3.org/2000/svg" viewBox="0 0 238.25 90.2"><defs><style>.cls-1{fill:#cf1b2d;}.cls-2{fill:#fff;}</style></defs><title>Logo_Datacycle_Neg</title><path class="cls-1" d="M121.37,20.81c-1-.49-2.22-1-3.55-1.64-.93-.4-2-.79-3.08-1.22L113,17.29l-1.87-.62a95.68,95.68,0,0,0-19.65-4.35c-2-.21-4-.45-6.18-.53-1.07-.05-2.15-.13-3.25-.16l-3.35,0c-2.27-.06-4.58.14-6.95.22-1.18.08-2.37.21-3.57.32s-2.42.22-3.63.42l-3.67.54c-1.22.22-2.44.48-3.67.73l-1.86.38-1.9.49c-1.25.33-2.6.67-3.8,1l-3.35,1.07-.84.27-.21.07-.31.11-.11,0-.44.18-1.76.71-3.54,1.44c-1.16.52-2.25,1.11-3.38,1.67a67.9,67.9,0,0,0-12.42,8l-2.6,2.4-1.31,1.21-1.14,1.29L16,36.84,14.1,39.59,13.16,41l-.76,1.44c-.49,1-1,1.93-1.45,2.92a35.52,35.52,0,0,0-1.84,6.07,29.66,29.66,0,0,0,0,12.53l.79,3.13c.32,1,.81,2.05,1.21,3.08l.64,1.54c.25.51.58,1,.87,1.55l1.82,3.08,2,2.66.51.67.26.33.13.17.06.08c.25.31.12.13.19.23l1.32,1.35c.89.89,1.75,1.8,2.68,2.67l3.08,2.48a63.12,63.12,0,0,0,14.68,8.23c2.65,1.19,5.62,2,8.42,2.95,1.47.39,3,.73,4.43,1.1.74.17,1.46.38,2.21.51l2.27.4a109.87,109.87,0,0,0,35.6.41c2.61-.41,5.14-.92,7.62-1.49l-.12-.16c-2.48.5-5,.92-7.63,1.21a90.4,90.4,0,0,1-33.84-3l-2-.56c-.66-.19-1.28-.44-1.92-.66l-3.8-1.36a75.55,75.55,0,0,1-7-3.28l-1.66-.89a13.11,13.11,0,0,1-1.62-.92l-3.08-1.95c-1-.64-1.87-1.41-2.82-2.1a26.78,26.78,0,0,1-2.66-2.17L29.29,81c-.75-.78-1.44-1.6-2.16-2.39l-1.08-1.19-.86-1.2-1.94-2.69L21.94,71c-.22-.42-.46-.82-.66-1.25l-.49-1.33c-.3-.89-.7-1.76-.94-2.65L19.3,63.1a25.17,25.17,0,0,1,.45-10.67,31,31,0,0,1,1.75-5.12c.41-.83.9-1.63,1.33-2.45l.65-1.22.83-1.16,1.64-2.32,2-2.18,1-1.08,1.12-1,2.21-2a58,58,0,0,1,10.54-6.67c1-.46,1.88-1,2.86-1.39l3-1.19,1.48-.59.37-.15.09,0h0l.11,0,.84-.28,3.33-1.1c1-.31,2-.53,3-.8l1.45-.39,1.56-.32,3.07-.64L67,19.84c1-.18,2-.28,3-.38s2-.22,3-.29c2-.07,3.94-.27,5.84-.22h2.82c.93,0,1.84.09,2.74.12,1.81,0,3.54.25,5.22.41a85.63,85.63,0,0,1,16.78,3.44l1.62.5,1.47.54c.94.36,1.86.66,2.66,1l3.92,1.45L111,30.74l32.79,5.88L125,17.23Z" transform="translate(-8.44 -11.6)"/><path class="cls-2" d="M62.54,75a10.48,10.48,0,0,1-7.71,3.69c-4,0-6-2.46-6-8a20.64,20.64,0,0,1,.2-3.37l1.49-10.49c1.16-8.42,4.66-12.43,10-12.43a6.82,6.82,0,0,1,4.86,1.81l1.36-10.56h8.55L70,78.11H62.67Zm2.07-22.67a4.45,4.45,0,0,0-2.33-.71c-1.75,0-2.72,1.3-3.3,5.25l-1.36,9.71a19.69,19.69,0,0,0-.19,2.27c0,1.88.65,2.27,1.68,2.27a4.43,4.43,0,0,0,3.37-1.62Z" transform="translate(-8.44 -11.6)"/><path class="cls-2" d="M75.81,56.87c1.16-8.42,4.66-12.43,10-12.43a7,7,0,0,1,5.31,2.26l.52-1.81h7.77l-4,33.22H88L87.85,75a10.48,10.48,0,0,1-7.71,3.69c-4,0-6-2.46-6-8a20.74,20.74,0,0,1,.19-3.37ZM87.92,68.59,90,52.4a4.06,4.06,0,0,0-2.4-.78c-1.68,0-2.78,1.29-3.3,5.25l-1.36,9.91a10.39,10.39,0,0,0-.13,1.88c0,1.81.58,2.2,1.62,2.2a4.65,4.65,0,0,0,3.5-2.27" transform="translate(-8.44 -11.6)"/><path class="cls-2" d="M116.21,53.12h-5.05l-1.75,14.25c-.13,1-.19,1.68-.19,1.94,0,1.55.78,2.53,2.33,2.53a6.3,6.3,0,0,0,1.88-.26v5.63a12.24,12.24,0,0,1-5.76,1.49c-4.92,0-7.06-2.59-7.06-7.71a20.78,20.78,0,0,1,.19-2.72l1.94-14.7-2.72-1,.71-6.35L104.1,46,107,39.39h5.89l-.84,6.8H117Z" transform="translate(-8.44 -11.6)"/><path class="cls-2" d="M117.57,56.87c1.16-8.42,4.66-12.43,10-12.43a7,7,0,0,1,5.31,2.26l.52-1.81h7.77l-4,33.22h-7.38L129.62,75a10.48,10.48,0,0,1-7.71,3.69c-4,0-6-2.46-6-8a20.73,20.73,0,0,1,.19-3.37Zm12.11,11.72,2.07-16.19a4.06,4.06,0,0,0-2.39-.78c-1.68,0-2.79,1.29-3.3,5.25l-1.36,9.91a10.39,10.39,0,0,0-.13,1.88c0,1.81.58,2.2,1.62,2.2a4.65,4.65,0,0,0,3.5-2.27" transform="translate(-8.44 -11.6)"/><path class="cls-1" d="M166.33,45.54l-7.06,2.14c0-3.3-.78-4.53-2.59-4.53-2.2,0-3.24,1.55-3.69,5.05l-2.46,18.26a9.14,9.14,0,0,0-.06,1.3c0,2.14.71,3.24,2.59,3.24s2.85-1.23,3.82-4.79l6.67,2c-1.94,7.25-5.89,10.49-12.17,10.49s-9.91-3.82-9.91-10.1c0-.65.06-1.36.13-2.07L144,48.26c1.1-8.23,6-13.15,12.89-13.15,5.76,0,9.33,4.21,9.45,10.43" transform="translate(-8.44 -11.6)"/><path class="cls-1" d="M179.28,74.23c-3.37,8.09-6.86,10.49-13.41,10.69l.19-6.61c2.85-.26,4.21-1.1,5.37-3.89l.26-.71-6-28.82H175l2.07,18.46,5.76-18.46h8.61Z" transform="translate(-8.44 -11.6)"/><path class="cls-1" d="M204.73,55.32c-.26-3.11-.91-3.82-2.2-3.82-1.81,0-3,1.23-3.5,5.31l-1.49,10.95a11.66,11.66,0,0,0-.13,1.36c0,1.88.78,2.46,2.13,2.46s2.72-1,3.63-3.88l6.15,1.94c-2.2,6-6,9.07-11.72,9.07-6.09,0-8.68-4-8.68-8.87a15.79,15.79,0,0,1,.13-1.68l1.55-11.66c.84-6.54,4.6-12.24,12-12.24,4.92,0,8.09,3.11,8.61,9.06Z" transform="translate(-8.44 -11.6)"/><polygon class="cls-1" points="215.97 24.1 210.79 66.52 202.31 66.52 207.49 24.1 215.97 24.1"/><path class="cls-1" d="M232.89,63.28,232.44,67a15.32,15.32,0,0,0-.13,1.55c0,2.2.91,3,2.65,3s2.72-1.1,3.82-4.08L245,69.5c-2.14,6.15-5.7,9.2-11.79,9.2s-9.46-4-9.46-9.52c0-.58.07-1.23.13-1.88l1.55-11.66c.84-6.15,4.79-11.4,12.17-11.4,6.15,0,9.07,4.21,9.07,9.65a20.24,20.24,0,0,1-.19,2.53l-.84,6.86Zm.71-5.5h5.05l.39-2.66a10.56,10.56,0,0,0,.06-1.36c0-1.94-.71-2.59-2.07-2.59-1.81,0-2.59,1-3,4Z" transform="translate(-8.44 -11.6)"/></svg>